<svg xmlns="http://www.w3.org/2000/svg" width="160" height="160"><path d="M 53.25 37.567 C 54.64 34.302 53.213 29.887 49.518 29.576 C 49.781 27.48 49.094 25.376 47.644 23.84 C 46.601 22.778 44.983 22.526 43.666 23.221 C 43.084 21.856 41.968 20.789 40.578 20.268 C 39.189 19.748 37.646 19.819 36.31 20.465 C 33.97 16.065 27.454 16.91 25.53 21.345 C 21.862 19.867 18.386 23.326 18.215 27.105 C 14.819 27.01 12.522 30.15 12.792 33.456 C 9.222 35.153 9.957 39.869 13.182 41.799 C 12.934 45.376 16.171 47.667 19.636 47.387 C 20.704 50.498 24.299 51.646 27.258 50.456 C 27.222 55.053 27.552 57.988 27.578 61.896 C 25.499 62.556 23.458 63.332 21.466 64.222 C 21.274 64.301 21.14 64.478 21.115 64.685 C 21.09 64.891 21.177 65.095 21.345 65.218 C 21.512 65.342 21.733 65.366 21.922 65.281 C 23.477 64.645 26.754 63.777 28.627 63.208 C 28.949 63.1 29.167 62.799 29.17 62.459 C 29.226 56.932 28.808 53.51 28.234 46.076 C 28.199 45.66 27.845 45.345 27.428 45.356 C 26.222 45.392 25.002 45.007 24.559 43.894 C 24.296 43.172 24.412 42.366 24.867 41.746 C 25.323 41.127 26.058 40.777 26.826 40.813 C 27.319 40.833 27.764 40.519 27.91 40.048 C 28.099 38.805 27.973 38.522 28.926 38.243 C 29.728 38.04 30.493 37.712 31.194 37.271 C 32.262 36.54 33.077 35.496 33.528 34.283 C 34.695 34.453 35.886 34.238 36.92 33.67 C 37.403 35.254 38.693 36.46 40.306 36.836 C 42.031 37.377 42.645 39.198 42.23 40.882 C 42.156 41.176 42.297 41.482 42.568 41.618 C 44.408 42.53 43.288 45.326 41.608 45.805 C 41.344 45.879 41.161 46.118 41.159 46.392 C 41.154 49.174 41.359 50.374 39.926 52.354 C 39.187 53.416 38.153 54.238 36.953 54.72 C 36.676 54.831 36.484 55.086 36.454 55.382 C 36.19 57.9 36.191 59.992 36.082 62.28 C 36.071 62.515 36.161 62.743 36.331 62.907 C 36.5 63.071 36.731 63.154 36.966 63.135 C 40.765 62.811 48.031 62.815 51.671 63.638 C 51.98 63.716 52.294 63.528 52.372 63.219 C 52.449 62.91 52.261 62.596 51.952 62.518 C 48.118 61.46 42.258 61.2 37.76 61.445 C 37.821 59.832 37.871 57.689 38 55.982 C 40.14 54.835 41.675 52.813 42.204 50.443 C 43.589 50.818 45.059 50.271 45.863 49.083 C 47.777 48.907 48.949 47.634 49.634 45.862 C 53.68 45.318 55.407 40.999 53.25 37.567 Z M 22.682 26.835 C 21.696 27.864 21.175 29.252 21.242 30.675 C 21.248 31.091 20.942 31.447 20.53 31.502 C 19.274 31.653 17.868 32.001 17.35 33.146 C 17.254 33.436 16.941 33.594 16.652 33.498 C 16.362 33.402 16.204 33.09 16.3 32.8 C 16.67 31.132 17.946 30.32 19.635 29.99 C 19.747 28.346 20.61 26.846 21.974 25.923 C 22.137 25.793 22.357 25.76 22.55 25.838 C 22.744 25.915 22.88 26.091 22.908 26.298 C 22.935 26.504 22.848 26.709 22.682 26.834 Z M 26.63 25.369 C 26.004 25.356 25.379 25.397 24.76 25.49 C 23.994 25.56 23.781 24.79 24.433 24.435 C 25.159 23.964 26.073 23.89 26.866 24.239 C 27.178 24.304 27.378 24.61 27.312 24.922 C 27.247 25.234 26.942 25.434 26.63 25.369 Z" fill="rgb(2, 28, 95)"></path><path d="M 25.606 61.65 C 26.806 65.106 27.592 70.497 28.682 75.12 C 28.738 75.434 29.038 75.642 29.352 75.586 C 29.666 75.529 29.874 75.229 29.818 74.915 C 29.306 71.627 29.378 66.622 26.622 61.215 C 26.498 60.942 26.178 60.819 25.902 60.937 C 25.626 61.055 25.495 61.372 25.606 61.65 Z M 45.628 60.832 C 45.918 61.734 46.865 65.276 46.886 65.357 C 47.526 67.763 47.954 70.221 48.166 72.702 C 48.166 73.021 48.424 73.279 48.742 73.279 C 49.061 73.279 49.319 73.021 49.319 72.702 C 49.532 69.508 49.064 66.305 47.946 63.305 C 47.566 62.32 47.135 61.355 46.654 60.415 C 46.54 60.132 46.218 59.996 45.935 60.11 C 45.652 60.225 45.516 60.547 45.63 60.83 Z" fill="rgb(255,90,38)"></path><path d="M 117.52 46.4 C 116.739 46.364 116.353 46.352 115.606 46.273 C 115.379 46.251 115.174 46.127 115.049 45.937 C 114.923 45.747 114.89 45.511 114.958 45.294 C 115.298 44.383 115.784 43.535 116.398 42.782 C 118.267 40.295 118.074 40.574 118.614 37.541 C 118.666 37.242 118.95 37.042 119.249 37.092 C 119.548 37.142 119.751 37.424 119.704 37.723 C 119.23 40.849 119.452 40.806 117.538 43.6 C 117.264 43.985 117.014 44.386 116.787 44.8 L 118.35 44.853 C 118.774 44.877 119.104 45.229 119.1 45.653 C 119.1 46.034 119.111 46.46 119.129 46.79 C 120.462 46.294 121.888 45.958 123.234 45.481 C 123.449 45.405 123.687 45.422 123.89 45.528 C 124.092 45.634 124.241 45.82 124.302 46.041 C 124.988 49.023 123.602 52.096 120.913 53.556 C 121.188 54.695 122.221 55.488 123.393 55.458 C 123.783 55.459 124.104 55.764 124.125 56.154 C 124.232 58.554 124.162 61.22 124.145 62.66 C 124.143 62.926 123.973 63.162 123.72 63.247 L 121.489 63.873 C 121.186 63.972 120.86 63.807 120.761 63.505 C 120.661 63.202 120.826 62.876 121.129 62.777 L 122.895 62.208 C 122.868 60.432 122.804 58.658 122.702 56.885 C 120.844 56.607 119.409 55.108 119.212 53.24 C 119.148 52.869 119.353 52.504 119.703 52.366 C 121.682 51.489 122.929 49.496 122.854 47.333 C 121.458 47.711 120.084 48.165 118.738 48.693 C 118.5 48.801 118.224 48.788 117.998 48.656 C 117.772 48.525 117.624 48.292 117.6 48.031 C 117.552 47.455 117.525 46.88 117.52 46.4 Z" fill="rgb(2, 28, 95)"></path><path d="M 120.498 39.379 C 120.498 40.475 120.972 41.364 121.557 41.364 C 122.141 41.364 122.615 40.475 122.615 39.379 C 122.615 38.283 122.141 37.394 121.557 37.394 C 120.972 37.394 120.498 38.283 120.498 39.379 Z M 119.83 31.306 C 119.495 32.621 119.563 34.006 120.024 35.282 C 120.079 35.596 120.378 35.806 120.692 35.752 C 121.006 35.697 121.216 35.398 121.161 35.084 C 120.985 33.87 120.908 32.645 120.929 31.418 C 120.948 31.121 120.729 30.862 120.433 30.832 C 120.137 30.802 119.87 31.012 119.83 31.306 Z M 132.644 81.78 C 132.216 86.21 132.209 90.671 132.622 95.102 C 132.627 95.421 132.889 95.676 133.207 95.671 C 133.526 95.667 133.78 95.405 133.776 95.086 C 133.802 92.826 133.962 92.792 133.956 88.442 C 133.95 83.759 133.876 84.637 133.749 81.802 C 133.747 81.503 133.508 81.26 133.209 81.253 C 132.91 81.246 132.66 81.478 132.644 81.776 Z M 138.906 81.25 C 138.826 82.219 138.318 86.155 138.306 86.238 C 137.973 88.878 137.397 91.482 136.586 94.016 C 136.462 94.31 136.601 94.648 136.894 94.771 C 137.188 94.894 137.526 94.756 137.65 94.462 C 139.136 91.392 139.963 88.045 140.077 84.635 C 140.125 83.496 140.07 82.372 140.01 81.266 C 140.004 80.968 139.763 80.729 139.466 80.724 C 139.168 80.72 138.92 80.952 138.906 81.25 Z M 140.57 95.19 C 141.956 93.239 142.96 91.043 143.53 88.718 C 144.113 86.421 144.396 84.058 144.371 81.688 C 144.389 81.48 144.292 81.278 144.118 81.161 C 143.944 81.045 143.721 81.031 143.535 81.126 C 143.348 81.221 143.228 81.409 143.22 81.618 C 142.949 83.871 142.523 86.103 141.945 88.298 C 141.348 90.469 140.569 92.587 139.618 94.629 C 139.479 94.89 139.571 95.214 139.826 95.364 C 140.081 95.514 140.408 95.437 140.57 95.189 Z M 32.582 47.822 C 32.965 49.1 33.993 50.083 35.288 50.407 C 36.582 50.731 37.952 50.35 38.893 49.402 C 39.138 49.198 39.171 48.834 38.966 48.59 C 38.762 48.345 38.398 48.312 38.154 48.516 C 37.404 48.939 36.515 49.044 35.687 48.807 C 34.853 48.567 34.118 48.064 33.591 47.374 C 33.467 47.095 33.141 46.969 32.862 47.093 C 32.584 47.217 32.458 47.543 32.582 47.822 Z M 35.992 40.35 C 35.803 41.608 35.775 42.885 35.908 44.15 C 36.034 45.494 36.083 46.371 36.72 46.362 C 37.398 46.35 37.393 45.446 37.471 44.13 C 37.595 42.828 37.467 41.515 37.094 40.262 C 37.061 39.965 36.798 39.747 36.5 39.771 C 36.202 39.795 35.977 40.051 35.992 40.35 Z" fill="rgb(2, 28, 95)"></path><path d="M 42.055 36.708 C 40.358 34.682 37.446 35.396 36.502 38.279 C 35.79 36.763 34.319 35.746 32.65 35.615 C 30.98 35.485 29.369 36.261 28.43 37.648 C 27.717 38.698 27.453 39.989 27.697 41.234 C 27.94 42.48 28.672 43.576 29.728 44.279 C 30.892 45.063 32.347 45.278 33.688 44.864 C 35.028 44.451 36.11 43.453 36.63 42.15 C 36.827 42.647 37.11 43.105 37.467 43.503 C 39.805 46.063 43.378 43.89 43.119 40.007 L 43.144 40.007 C 43.185 38.813 42.799 37.643 42.055 36.708 Z M 30.64 42.923 C 29.199 41.948 28.81 39.996 29.767 38.543 C 30.501 37.45 31.815 36.898 33.109 37.138 C 34.403 37.379 35.431 38.366 35.723 39.65 L 35.747 39.645 C 35.946 40.942 35.363 42.234 34.259 42.943 C 33.154 43.652 31.736 43.644 30.64 42.923 Z M 38.441 42.104 C 37.702 40.868 37.671 39.334 38.361 38.07 C 39.633 35.926 41.854 37.498 41.995 40.027 L 42.019 40.027 C 41.934 42.517 39.787 44.186 38.438 42.104 Z" fill="rgb(255,90,38)"></path><path d="M 31.626 40.174 C 31.626 40.977 32.094 41.629 32.671 41.629 C 33.249 41.629 33.717 40.977 33.717 40.174 C 33.717 39.37 33.249 38.718 32.671 38.718 C 32.094 38.718 31.626 39.37 31.626 40.174 Z M 38.825 40.174 C 38.825 40.977 39.293 41.629 39.87 41.629 C 40.448 41.629 40.916 40.977 40.916 40.174 C 40.916 39.37 40.448 38.718 39.87 38.718 C 39.293 38.718 38.825 39.37 38.825 40.174 Z M 70.662 77.904 C 68.139 70.598 62.054 65.538 55.054 62.24 C 54.857 62.149 54.628 62.153 54.434 62.252 C 54.24 62.35 54.102 62.532 54.059 62.746 C 52.806 68.45 48.713 73.112 43.219 75.093 C 43.158 74.622 43.011 74.167 42.786 73.749 C 42.277 72.761 41.068 71.658 40.546 72.169 C 40.226 72.483 40.268 72.619 41.888 75.542 C 35.876 77.457 29.297 75.81 24.896 71.289 C 22.807 69.036 21.035 66.509 19.63 63.777 C 19.437 63.424 19.017 63.263 18.638 63.397 C 12.5 65.57 9.053 69.472 7.214 74.23 C 4.539 81.145 5.332 89.919 6.094 97.729 C 6.24 99.2 4.015 118.268 4 128.56 C 3.998 128.879 4.254 129.139 4.573 129.141 C 4.891 129.143 5.151 128.887 5.154 128.568 C 5.246 121.357 6.531 109.208 7.213 102.157 C 7.906 105.437 9.034 109.117 10.906 111.917 C 11.306 113.365 12.302 114.575 13.646 115.247 C 15.667 116.279 17.945 116.474 19.862 115.208 C 26.87 126.426 32.243 139.758 46.553 142.434 C 46.865 142.498 47.17 142.297 47.234 141.985 C 47.298 141.673 47.097 141.368 46.785 141.304 C 36.072 138.904 30.74 130.112 25.131 121.106 C 21.146 114.706 14.789 104.699 13.542 102.196 C 14.859 98.696 18.337 91.92 20.939 89.306 C 23.362 86.864 26.581 85.42 29.352 87.51 C 32.712 94.997 36.296 104.641 41.002 114.78 C 44.002 121.1 45.382 125.82 51.51 129.694 C 51.683 129.811 51.905 129.827 52.092 129.734 C 52.279 129.641 52.402 129.455 52.412 129.246 C 52.422 129.038 52.319 128.84 52.142 128.729 C 46.511 124.914 45.217 120.233 42.462 114.106 C 38.65 105.838 35.679 97.794 30.83 87.954 C 31.108 87.729 31.19 87.339 31.025 87.022 C 29.389 83.768 27.56 80.616 25.546 77.582 C 25.375 77.329 25.032 77.262 24.779 77.433 C 24.526 77.604 24.46 77.947 24.63 78.2 C 26.05 80.486 27.338 82.851 28.488 85.283 C 24.698 83.874 20.733 86.63 18.324 89.843 C 15.727 93.564 13.612 97.599 12.03 101.852 C 11.266 103.945 10.82 106.142 10.708 108.367 C 9.703 105.531 8.909 102.625 8.334 99.672 C 6.706 92.159 5.959 81.872 8.717 74.819 C 10.407 70.316 14.001 66.79 18.535 65.186 C 21.113 69.788 24.27 74.066 29.047 76.254 C 39.499 81.027 52.495 75.054 55.258 63.906 C 61.675 66.982 67.218 71.637 69.62 78.273 C 69.735 78.541 70.038 78.675 70.313 78.577 C 70.588 78.479 70.74 78.185 70.66 77.904 Z" fill="rgb(2, 28, 95)"></path><path d="M 45.712 132.1 C 46.99 133.414 48.502 134.478 50.17 135.237 C 51.834 136.041 53.639 136.511 55.484 136.621 C 55.8 136.663 56.091 136.442 56.133 136.126 C 56.176 135.81 55.954 135.519 55.638 135.477 C 53.993 135.077 52.396 134.499 50.874 133.755 C 49.764 133.226 47.233 131.802 46.408 131.242 C 46.171 131.05 45.823 131.086 45.631 131.323 C 45.439 131.56 45.475 131.908 45.712 132.1 Z M 45.888 136.206 C 46.731 136.998 47.72 137.619 48.8 138.034 C 49.866 138.479 50.997 138.752 52.149 138.841 C 52.46 138.909 52.767 138.711 52.835 138.4 C 52.903 138.089 52.706 137.781 52.394 137.714 C 51.166 137.298 48.187 135.97 47.635 135.742 C 47.246 135.582 46.862 135.447 46.482 135.275 C 46.226 135.123 45.896 135.202 45.735 135.453 C 45.575 135.703 45.641 136.036 45.886 136.206 Z M 43.76 138.474 C 44.586 139.213 45.559 139.768 46.615 140.103 C 47.659 140.471 48.76 140.652 49.866 140.638 C 50.182 140.679 50.472 140.457 50.513 140.141 C 50.554 139.825 50.331 139.535 50.015 139.494 C 48.752 139.18 45.786 138.037 45.706 138.008 C 45.239 137.841 44.778 137.711 44.326 137.528 C 44.064 137.372 43.725 137.458 43.568 137.72 C 43.412 137.982 43.498 138.321 43.76 138.477 Z M 111.384 67.02 C 106.014 68.205 103.016 74.27 99.85 78.165 C 94.297 84.994 89.954 92.283 84.854 99.482 C 76.849 110.783 65.751 117.659 54.125 125.49 C 53.86 125.666 53.788 126.025 53.965 126.29 C 54.142 126.555 54.5 126.626 54.765 126.45 C 66.539 118.66 77.645 112.465 86.19 100.431 C 91.129 93.478 95.733 85.823 101.007 79.09 C 103.988 75.285 106.86 69.214 111.628 68.098 C 111.917 68.023 112.094 67.732 112.028 67.441 C 111.962 67.15 111.676 66.964 111.383 67.021 Z M 151.72 72.097 C 153.872 74.257 154.575 77.237 154.326 80.257 C 153.994 84.277 151.606 89.697 149.736 93.266 C 149.597 93.544 149.704 93.882 149.977 94.031 C 150.25 94.179 150.592 94.085 150.75 93.817 C 153.088 89.657 155.57 85.461 155.957 80.386 C 156.363 76.974 155.066 73.579 152.488 71.306 C 152.267 71.107 151.927 71.118 151.72 71.333 C 151.513 71.547 151.513 71.886 151.72 72.101 Z" fill="rgb(2, 28, 95)"></path><path d="M 61.507 78.32 C 56.886 80.108 49.818 82.39 45.086 83.92 C 44.759 84.027 44.533 84.327 44.522 84.671 C 44.42 87.683 44.517 86.79 44.552 89.791 C 44.554 90.026 44.658 90.248 44.837 90.399 C 45.016 90.551 45.252 90.617 45.484 90.58 C 51.396 89.569 60.731 88.682 60.731 88.774 C 61.008 88.756 61.23 88.538 61.253 88.262 C 61.333 88.262 61.308 88.714 62.494 79.074 C 62.525 78.821 62.419 78.57 62.216 78.415 C 62.014 78.26 61.744 78.224 61.507 78.32 Z" fill="rgb(255,90,38)"></path><path d="M 64.214 79.055 C 63.8 80.524 63.476 82.017 63.242 83.525 C 62.984 85.045 62.83 86.58 62.778 88.121 C 62.736 88.437 62.958 88.727 63.274 88.769 C 63.59 88.811 63.88 88.59 63.922 88.274 C 64.332 86.318 64.518 85.972 65.01 82.891 C 65.214 81.672 65.315 80.437 65.31 79.2 C 65.34 78.902 65.128 78.634 64.831 78.595 C 64.534 78.557 64.26 78.762 64.214 79.058 Z M 67.237 79.6 C 66.134 82.988 66.381 83.645 65.769 88.073 C 65.719 88.275 65.782 88.489 65.934 88.632 C 66.087 88.775 66.304 88.824 66.503 88.761 C 66.702 88.698 66.851 88.532 66.894 88.328 C 67.747 85.568 68.227 82.705 68.32 79.818 C 68.381 79.519 68.188 79.227 67.889 79.166 C 67.59 79.105 67.299 79.298 67.238 79.597 Z" fill="rgb(2, 28, 95)"></path><path d="M 69.903 80.445 C 69.522 81.773 69.237 83.128 69.048 84.497 C 68.825 85.866 68.674 87.246 68.598 88.631 C 68.545 88.946 68.757 89.243 69.072 89.296 C 69.386 89.348 69.683 89.136 69.736 88.822 C 70.201 87.218 70.556 85.585 70.797 83.934 C 70.961 82.826 71.029 81.705 70.999 80.586 C 71.027 80.289 70.815 80.023 70.519 79.985 C 70.224 79.947 69.951 80.15 69.903 80.445 Z M 88.767 90.025 L 61.79 89.553 C 61.689 89.553 63.23 89.429 37.87 92.894 C 37.577 92.936 37.362 93.192 37.373 93.489 L 37.373 99.84 C 37.373 100.272 38.354 100.71 42.91 110.047 C 46.49 117.382 49.981 125.532 49.981 125.532 C 50.066 125.731 50.235 125.881 50.443 125.943 C 50.65 126.005 50.874 125.972 51.054 125.852 L 60.552 119.578 C 65.315 117.43 69.876 113.966 73.903 110.17 C 79.783 104.483 84.998 98.145 89.446 91.28 C 89.604 91.03 89.614 90.714 89.473 90.454 C 89.333 90.194 89.063 90.03 88.767 90.025 Z M 61.765 115.41 C 61.762 115.729 61.501 115.985 61.182 115.982 C 60.864 115.979 60.608 115.718 60.611 115.399 C 60.198 93.799 60.322 100.694 60.669 91.9 C 60.684 91.602 60.934 91.37 61.232 91.376 C 61.53 91.382 61.77 91.624 61.774 91.922 C 61.774 97.04 62.297 102.344 61.765 115.41 Z" fill="rgb(255,90,38)"></path><path d="M 149.078 70.846 C 149.682 60.156 150.11 50.004 149.299 39.318 C 148.646 30.881 145.958 21.198 137.801 23.514 C 129.947 18.227 118.627 19.907 116.631 29.986 C 116.333 31.878 116.411 33.809 116.861 35.67 C 116.893 35.87 117.032 36.035 117.222 36.102 C 117.413 36.17 117.624 36.128 117.775 35.993 C 117.925 35.858 117.99 35.653 117.945 35.456 C 117.562 33.74 117.519 31.965 117.817 30.232 C 118.512 26.175 121.689 22.996 125.746 22.298 C 129.776 21.63 133.906 22.616 137.2 25.032 C 137.405 25.178 137.667 25.22 137.907 25.143 C 144.96 22.898 147.094 32.023 147.661 39.445 C 148.551 50.839 147.996 63.027 147.429 74.381 C 147.229 78.605 147.161 82.846 146.195 86.845 C 145.302 90.55 143.075 95.165 140.393 97.198 C 139.624 97.781 138.827 98.183 138.134 97.598 C 137.813 97.327 137.339 97.346 137.041 97.642 C 135.618 99.046 134.33 98.99 133.297 97.306 C 133.181 97.118 132.994 96.985 132.779 96.936 C 132.564 96.888 132.338 96.93 132.154 97.05 C 129.853 98.559 128.122 95.979 127.308 93.443 C 126.004 89.381 126.298 87.308 126.594 63.716 C 126.658 58.69 126.976 42.267 126.266 41.169 C 124.783 38.721 124.073 35.884 124.229 33.026 C 124.237 32.722 123.996 32.468 123.691 32.46 C 123.386 32.452 123.133 32.693 123.125 32.998 C 122.866 36.071 123.536 39.152 125.049 41.84 C 125.342 43.879 125.006 51.305 124.901 69.816 C 123.451 67.502 121.756 65.351 119.846 63.399 C 119.65 63.188 119.357 63.095 119.075 63.154 C 116.571 63.583 114.149 64.403 111.9 65.584 C 111.636 65.739 111.481 66.03 111.499 66.336 C 111.517 66.642 111.705 66.913 111.986 67.036 C 116.021 68.802 117.106 73.312 117.37 77.708 C 117.951 87.186 116.666 99.157 112.638 107.842 C 110.345 112.796 105.128 115.696 100.1 113.299 C 105.306 107.539 109.479 101.379 114.29 95.36 C 114.424 95.201 114.462 94.982 114.389 94.787 C 114.316 94.593 114.145 94.452 113.939 94.419 C 113.734 94.387 113.527 94.467 113.398 94.63 C 106.998 102.286 100.982 110.918 93.826 117.3 C 85.516 124.793 73.746 130.318 62.741 132.98 C 62.452 133.055 62.275 133.346 62.341 133.637 C 62.407 133.929 62.693 134.115 62.986 134.058 C 77.005 130.964 88.846 125.191 98.709 114.804 C 100.173 121.248 101.413 127.741 102.426 134.27 C 102.489 134.589 102.788 134.804 103.11 134.762 C 146.488 134.718 143.338 134.828 143.338 134.642 C 143.611 134.645 143.849 134.455 143.905 134.187 L 143.88 134.187 C 146.2 121.578 150.343 92.867 150.321 82.168 C 150.314 79.002 149.817 72.734 149.078 70.846 Z" fill="rgb(2, 28, 95)"></path><path d="M 85.834 80.052 C 85.071 79.629 84.237 79.348 83.374 79.222 C 85.142 75.227 80.726 70.606 75.83 73.376 C 72.342 75.35 71.604 79.522 73.917 82.199 C 72.828 83.386 72.146 84.89 71.972 86.492 C 70.958 86.336 70.162 86.732 70.169 87.152 C 70.176 87.638 70.532 87.62 71.593 88.007 C 73.652 88.759 73.731 90.069 74.485 89.622 C 75.11 89.25 74.423 88.118 73.953 87.567 C 73.695 87.275 73.384 87.033 73.038 86.854 C 73.204 85.991 73.479 85.154 73.856 84.361 C 74.725 82.778 75.509 82.957 75.552 82.281 C 75.588 81.738 75.159 81.793 74.572 80.754 C 73.486 78.825 74.14 76.137 76.613 74.778 C 80.646 72.562 83.573 76.866 81.362 79.37 C 81.153 79.607 81.099 79.942 81.224 80.232 C 81.567 81.026 82.285 80.512 83.962 80.991 C 85.653 81.471 85.699 82.186 86.413 81.97 C 87.182 81.738 86.806 80.894 88.214 79.15 C 90.946 75.769 95.31 77.702 95.02 81.525 C 95.001 81.836 95.233 82.106 95.543 82.135 C 95.853 82.164 96.131 81.941 96.17 81.632 C 96.8 75.962 89.222 73.194 85.834 80.052 Z M 84.014 89.302 C 84.755 88.781 85.639 88.504 86.545 88.509 C 87.456 88.495 88.344 88.798 89.055 89.368 C 89.262 89.611 89.627 89.64 89.87 89.433 C 90.113 89.226 90.142 88.861 89.935 88.618 C 89.163 87.524 87.91 86.869 86.57 86.861 C 85.231 86.853 83.969 87.491 83.183 88.576 C 82.983 88.806 83.007 89.155 83.237 89.355 C 83.467 89.556 83.816 89.532 84.016 89.302 Z" fill="rgb(2, 28, 95)"></path><path d="M 81.395 84.027 C 81.322 83.991 80.934 83.867 80.812 83.82 C 80.695 83.65 80.559 83.495 80.406 83.355 C 80.13 83.123 79.633 83.035 79.086 83.624 C 78.746 84.078 78.681 84.681 78.918 85.197 C 79.156 85.712 79.656 86.056 80.222 86.093 C 80.787 86.13 81.328 85.854 81.63 85.374 C 81.958 84.646 81.722 84.19 81.395 84.027 Z M 79.264 81.073 C 79.587 81.271 79.757 81.645 79.694 82.019 C 79.63 82.392 79.346 82.69 78.975 82.77 C 78.605 82.85 78.223 82.696 78.011 82.382 C 77.799 82.068 77.799 81.657 78.012 81.343 C 78.283 80.923 78.844 80.802 79.264 81.073 Z M 85.513 83.581 C 85.836 83.779 86.006 84.153 85.942 84.527 C 85.879 84.9 85.594 85.198 85.224 85.278 C 84.854 85.358 84.472 85.204 84.26 84.89 C 84.048 84.576 84.048 84.165 84.261 83.851 C 84.532 83.431 85.092 83.31 85.513 83.581 Z" fill="rgb(2, 28, 95)"></path></svg>