<svg xmlns="http://www.w3.org/2000/svg" viewBox="0 0 20 20">
  <path
    fill="currentColor"
    d="M17.8 6.7c0-.9-.2-1.4-.4-1.9-.2-.6-.5-1-1-1.4-.5-.5-.9-.7-1.4-1-.5-.2-1.1-.3-1.9-.4H10c-2.1 0-2.5 0-3.3.1-.9 0-1.4.2-1.9.4-.6.2-1 .4-1.4.9-.5.4-.7.9-1 1.4-.2.6-.3 1.1-.3 2-.1.7-.1 1-.1 3.2s0 2.5.1 3.3c0 .9.2 1.4.4 1.9.2.6.5 1 1 1.4s.9.7 1.4 1c.4.2 1.1.3 1.9.4H10c2.1 0 2.4 0 3.2-.1.9 0 1.4-.2 1.9-.4.6-.2 1-.5 1.4-1 .5-.5.7-.9 1-1.4.2-.5.3-1.1.4-1.9 0-.9.1-1 .1-3.2-.1-2.1-.1-2.5-.2-3.3zm-1.4 6.5c0 .8-.2 1.2-.2 1.5-.2.4-.3.6-.6.9-.2.2-.6.5-.9.6-.3.1-.7.2-1.5.2-.9 0-1.1.1-3.2.1s-2.4 0-3.2-.1c-.8 0-1.2-.2-1.5-.2-.5-.1-.7-.2-1-.6-.2-.2-.5-.6-.6-.9-.2-.3-.3-.7-.3-1.5 0-.9-.1-1.1-.1-3.2 0-2.2 0-2.4.1-3.2 0-.8.2-1.2.2-1.5.2-.4.3-.6.6-.9.2-.2.6-.5.9-.6.5-.1.9-.3 1.7-.3.9 0 1.2-.1 3.2-.1s2.3 0 3.1.1c.8 0 1.2.2 1.5.2.4.2.6.3.9.6.3.3.5.7.6 1 .2.3.3.7.3 1.5 0 .9.1 1.1.1 3.2 0 2.2 0 2.4-.1 3.2zM10 5.9c-2.2 0-4.1 1.8-4.1 4.1s1.8 4.1 4.1 4.1 4-1.9 4-4.1-1.8-4.1-4-4.1m0 6.7c-1.4 0-2.6-1.2-2.6-2.6S8.5 7.4 10 7.4s2.6 1.2 2.6 2.6-1.2 2.6-2.6 2.6m5.1-6.8c0 .6-.4 1-1 1s-1-.4-1-1 .4-1 1-1 1 .4 1 1"
  ></path>
</svg>
