<svg
  width="46"
  height="32"
  viewBox="0 0 46 32"
  fill="none"
  xmlns="http://www.w3.org/2000/svg"
>
  <path
    d="M40.649 13.0287C38.541 13.0287 37.034 14.0215 36.273 15.4919C36.273 12.0186 37.463 8.9923 40.288 8.9923C42.084 8.9923 42.797 10.0452 43.177 11.7701L45.793 11.2376C45.178 8.25813 43.319 6.81118 40.306 6.81118C36.521 6.81118 33.689 9.77025 33.689 16.4032C33.689 22.2919 36.05 25.2021 40.119 25.2021C43.482 25.2021 46 22.8641 46 19.011C46 16.001 44.424 13.0287 40.649 13.0287ZM40.126 23.026C38.039 23.026 36.595 21.071 36.344 18.4815C36.978 16.2698 38.384 15.1691 40.045 15.1691C42.181 15.1691 43.387 16.7749 43.387 19.0589C43.387 21.5098 42.014 23.026 40.126 23.026ZM26.211 19.3216C25.364 20.1841 23.455 21.741 22.123 22.6778H30.114V25.0116H18.355V22.8804C19.718 21.8896 22.548 19.7381 24.319 17.9337C26.014 16.2077 27.124 14.6304 27.124 12.3149C27.124 10.037 25.895 9.09005 24.234 9.09005C22.532 9.09005 21.172 10.092 21.172 12.1846C21.172 12.6407 21.222 13.1478 21.346 13.7313L18.675 13.4676C18.5591 13.0033 18.5007 12.5261 18.501 12.0471C18.501 9.25399 20.425 6.81118 24.322 6.81118C27.537 6.81118 29.915 8.51066 29.915 12.2263C29.915 15.6049 27.492 18.0355 26.402 19.1291L26.211 19.3216ZM0 0H14.251V2.33386H0V0ZM11.579 7.00057V19.3216H11.578C11.578 20.4121 11.603 21.072 11.653 21.7064H11.603C11.341 20.9803 11.032 20.3439 10.572 19.5151L3.416 7.00057H0.146V25.0116H2.694V12.6906H2.696C2.696 11.5991 2.671 10.9402 2.621 10.3059H2.671C2.932 11.0319 3.241 11.6683 3.701 12.4961L10.857 25.0116H14.094V7.00057H11.579ZM0 29.6784H14.251V32H0V29.6784Z"
    fill="currentColor"
  />
</svg>
