<svg xmlns="http://www.w3.org/2000/svg" width="160" height="160"><path d="M 106.463 76.018 C 106.177 74.91 106.006 73.775 105.955 72.632 C 106.787 71.832 107.955 70.834 108.442 70.8 C 108.962 70.762 110.625 72.982 110.867 73.572 C 110.178 74.382 109.628 75.301 109.24 76.292 C 108.326 76.106 107.396 76.015 106.463 76.018 Z M 109.116 77.268 C 108.234 77.064 107.337 76.935 106.434 76.882 C 105.991 78.466 104.274 80.673 103.371 84.608 C 103.512 87.843 103.991 91.054 104.8 94.19 C 105.673 90.88 107.12 88.374 109.062 85.183 C 109.262 83.187 109.019 79.422 109.12 77.268 Z M 38.106 75.399 C 38.094 74.464 38.549 71.994 38.518 71.631 C 37.427 70.544 35.843 69.483 35.426 69.471 C 34.861 69.46 32.827 73.135 32.515 73.603 C 34.508 74.979 35.374 75.425 35.846 76.026 C 36.56 75.695 37.323 75.484 38.106 75.399 Z M 38.518 101.836 C 38.63 98.702 36.804 80.716 36.136 76.901 C 36.889 76.599 37.68 76.403 38.486 76.318 C 39.897 78.79 45.132 88.318 46.662 105.662 C 45.192 105.13 39.87 103.024 38.518 101.84 Z" fill="rgb(255,90,38)"></path><path d="M 43.131 45.72 C 43.104 45.489 42.899 45.32 42.667 45.337 C 42.435 45.355 42.257 45.553 42.266 45.786 C 42.427 48.185 42.456 50.591 42.353 52.994 C 42.273 55.342 42.171 60.528 39.823 61.862 C 37.69 63.075 32.186 61.957 30.075 61.107 C 29.898 61.03 29.691 61.108 29.608 61.283 C 29.526 61.458 29.597 61.667 29.77 61.755 C 31.123 62.397 32.568 62.827 34.052 63.03 C 34.126 64.06 34.037 65.596 34.146 66.123 C 34.178 66.307 34.339 66.44 34.526 66.438 C 34.712 66.436 34.87 66.299 34.898 66.114 C 35.004 65.474 34.874 64.014 34.884 63.134 C 40.421 63.706 42.93 63.134 43.271 52.804 C 43.399 50.442 43.352 48.075 43.131 45.72 Z M 44.793 40.455 C 45.42 43.547 43.404 44.41 40.748 44.392 C 37.798 44.371 34.846 44.344 31.896 44.358 C 31.176 47.238 30.136 48.374 28.191 50.429 C 28.075 50.551 27.852 50.676 27.734 50.546 C 26.862 49.58 25.1 49.705 24.638 51.614 C 24.296 53.132 25.053 54.685 26.461 55.35 C 27.214 55.794 26.621 56.182 26.124 55.964 C 25.878 55.844 25.647 55.698 25.434 55.526 C 25.527 57.555 25.542 60.334 25.419 62.294 C 25.392 62.734 24.668 62.661 24.673 62.252 C 24.727 60.172 24.67 58.091 24.502 56.017 C 21.776 53.049 20.641 48.337 20.734 44.454 C 20.818 40.875 22.88 37.008 26.112 40.583 C 27.294 38.424 29.209 36.759 31.512 35.889 C 35.897 34.178 43.68 34.99 44.793 40.455 Z M 41.77 41.324 C 42.17 42.124 43.038 41.239 42.658 40.242 C 41.628 37.542 36.932 36.83 34.524 37.562 C 34.075 37.698 34.25 38.34 34.684 38.337 C 37.472 38.312 40.422 38.593 41.77 41.324 Z M 39.706 46.702 C 40.326 46.563 41.256 46.942 41.264 47.695 C 41.247 47.82 41.157 47.922 41.035 47.954 C 40.914 47.985 40.785 47.94 40.71 47.84 C 40.547 47.518 40.192 47.341 39.838 47.406 C 39.659 47.412 39.502 47.287 39.469 47.111 C 39.436 46.934 39.537 46.761 39.706 46.702 Z M 34.622 47.122 C 35.278 47.212 35.114 47.917 34.622 47.904 C 34.078 47.903 33.603 48.275 33.474 48.805 C 33.428 48.978 33.26 49.09 33.082 49.067 C 32.904 49.043 32.772 48.891 32.773 48.711 C 32.803 48.253 33.016 47.827 33.364 47.528 C 33.712 47.229 34.165 47.082 34.622 47.12 Z M 35.883 50.249 C 35.922 50.698 36.066 51.56 35.578 51.739 C 34.833 52.014 34.618 50.872 34.69 50.398 C 34.825 49.482 35.81 49.434 35.883 50.249 Z M 40.722 50.603 C 40.754 50.95 40.753 51.495 40.381 51.582 C 39.741 51.733 39.581 51.176 39.546 50.627 C 39.518 50.214 39.599 49.603 40.122 49.579 C 40.69 49.554 40.684 50.204 40.72 50.603 Z M 39.777 53.982 C 40.097 55.087 38.543 55.342 37.586 55 C 37.259 54.884 37.403 54.345 37.692 54.314 C 38.069 54.326 38.447 54.316 38.823 54.283 C 39.162 54.207 38.983 54.128 38.851 53.758 C 38.583 53.033 38.211 52.177 38.022 51.444 C 37.986 51.275 38.077 51.104 38.238 51.041 C 38.399 50.978 38.582 51.041 38.67 51.19 C 39.103 52.094 39.473 53.027 39.777 53.982 Z M 36.805 57.775 C 35.576 59.375 32.61 58.471 32.85 55.504 C 33.813 57.254 36.175 57.668 36.805 57.775 Z M 32.133 55.07 C 32.36 54.073 32.724 54.179 33.285 54.799 C 36.034 57.839 38.485 56.399 37.845 57.705 C 37.391 58.587 36.53 59.188 35.545 59.309 C 34.561 59.429 33.58 59.054 32.927 58.306 C 32.193 57.4 31.902 56.213 32.133 55.07 Z M 76.684 79.07 C 73.138 75.016 69.606 73.296 64.628 71.587 C 63.179 75.482 58.903 82.286 55.613 85.123 C 55.309 85.386 54.801 84.958 55.074 84.643 C 58.671 80.737 61.587 76.255 63.7 71.383 C 64.02 70.71 64.02 70.681 64.79 70.806 C 69.277 71.542 74.029 74.678 77.039 77.948 C 77.661 78.624 77.637 78.802 77.279 79.583 C 74.309 86.119 70.319 93.963 66.159 99.682 C 63.818 102.902 61.496 105.342 55.769 106.536 C 55.293 106.635 55.141 105.744 55.647 105.666 C 60.802 104.866 63.495 102.072 66.331 97.797 C 73.106 87.591 76.436 79.072 76.684 79.072 Z M 61.732 124.903 C 57.966 125.174 55.936 124.657 52.508 123.132 C 50.222 122.114 46.368 120.079 43.948 120.086 C 43.594 120.086 43.414 120.713 43.788 120.793 C 46.849 121.446 49.587 122.994 52.757 124.339 C 55.325 125.429 59.122 126.663 61.862 125.699 C 62.225 125.575 62.277 124.906 61.732 124.906 Z M 64.747 124.138 C 62.142 124.84 57.002 123.429 54.922 122.024 C 54.557 121.778 54.943 121.259 55.31 121.402 C 60.123 123.282 62.05 123.389 64.67 123.39 C 64.844 123.419 64.977 123.56 64.995 123.736 C 65.013 123.911 64.911 124.076 64.747 124.14 Z M 66.656 122.421 C 63.678 122.81 59.175 121.57 56.685 119.907 C 56.334 119.673 56.679 119.123 57.05 119.279 C 60.936 120.915 62.539 121.147 66.65 121.624 C 66.864 121.632 67.034 121.807 67.036 122.021 C 67.037 122.235 66.87 122.412 66.656 122.423 Z M 66.896 120.394 C 63.817 119.989 60.867 118.907 58.256 117.226 C 57.941 116.986 58.09 116.421 58.521 116.54 C 60.041 116.959 64.377 119.09 67.102 119.548 C 67.496 119.55 67.402 120.451 66.894 120.4 Z M 58.072 114.369 C 56.53 114.049 53.444 115.378 52.194 116.2 C 51.932 116.442 51.626 116.632 51.292 116.76 C 50.926 116.83 50.844 116.366 51.052 115.974 C 53.372 111.523 59.958 112.374 62.842 108.893 C 63.106 108.573 62.675 108.093 62.338 108.355 C 59.733 110.366 57.834 110.586 54.957 111.746 C 53.291 112.416 50.646 114.003 50.052 115.938 C 49.83 116.658 49.99 117.582 50.932 117.68 C 51.78 117.769 52.47 117.058 53.153 116.666 C 54.637 115.692 56.361 115.144 58.135 115.082 C 59.09 115.061 58.307 114.369 58.072 114.369 Z M 46.096 107.036 C 47.076 107.323 47.423 107.782 46.976 108.544 C 45.305 111.407 43.869 116.304 42.827 121.968 C 42.667 122.848 42.454 122.721 41.741 122.648 C 35.373 121.947 29.147 120.293 23.271 117.742 C 12.272 113.05 4.506 107.767 4.032 94.842 C 3.649 84.416 6.634 71.746 16.814 66.727 C 17.027 66.615 17.29 66.695 17.404 66.907 C 17.517 67.118 17.44 67.382 17.23 67.498 C 6.918 73.09 4.065 86.09 5.12 96.923 C 6.279 108.809 15.91 113.977 26.026 117.845 C 31.208 119.78 36.587 121.142 42.066 121.905 C 42.066 118.327 43.957 111.374 46.019 108.028 C 37.728 105.626 29.996 101.605 23.268 96.197 C 23.107 96.066 23.083 95.831 23.213 95.67 C 23.344 95.509 23.579 95.485 23.74 95.615 C 24.198 95.966 24.659 96.31 25.126 96.648 C 24.377 92.683 25.41 84.978 27.434 81.258 C 27.674 80.818 28.332 81.209 28.18 81.635 C 25.881 88.08 25.574 90.595 25.948 97.235 C 32.072 101.601 38.881 104.913 46.096 107.036 Z M 36.58 117.807 C 36.013 117.859 35.594 118.36 35.645 118.927 C 35.726 119.394 36.081 119.765 36.544 119.866 C 36.822 119.895 37.1 119.806 37.309 119.62 C 37.517 119.434 37.637 119.168 37.639 118.888 C 37.643 118.604 37.533 118.33 37.334 118.127 C 37.135 117.925 36.864 117.809 36.58 117.807 Z M 50.088 125.449 C 50.701 125.311 50.968 126.103 50.39 126.222 C 36.921 129.002 20.242 127.99 8.926 126.196 C 8.73 126.154 8.586 125.984 8.578 125.782 C 7.778 121.062 6.926 113.498 7.178 108.783 C 7.186 108.605 7.333 108.465 7.512 108.465 C 7.69 108.465 7.837 108.605 7.846 108.783 C 7.742 114.891 8.838 120.111 9.276 125.354 C 36.614 128.822 50.4 125.449 50.088 125.449 Z M 37.15 105.769 C 34.096 108.424 32.135 114.842 32.334 118.671 C 32.355 119.09 33.042 119.079 33.07 118.664 C 33.507 112.375 35.59 108.498 37.757 106.355 C 38.08 106.033 37.535 105.433 37.15 105.768 Z M 58.24 109.327 C 58.63 109.5 58.618 110.202 58.172 110.17 C 56.374 110.037 53.212 110.64 52.057 110.768 C 50.317 110.962 48.953 111.173 47.398 110.245 C 47.014 110.016 47.355 109.462 47.743 109.582 C 49.309 110.034 50.966 110.074 52.551 109.696 C 53.896 109.494 57.089 108.818 58.24 109.327 Z M 35.746 67.653 C 34.153 66.876 33.753 67.327 32.834 68.647 C 31.814 70.19 30.963 71.839 30.298 73.565 C 25.279 71.337 22.58 69.148 18.577 65.73 C 19.711 65.031 20.802 64.661 21.945 64.059 C 22.114 63.97 22.193 63.771 22.133 63.589 C 22.072 63.408 21.889 63.297 21.7 63.327 C 20.407 63.761 19.176 64.362 18.039 65.115 C 17.592 65.435 17.472 65.623 17.854 66.06 C 20.315 68.872 26.3 73.036 29.725 74.276 C 30.652 74.612 30.709 74.554 31.165 73.716 C 31.911 72.338 32.344 71.07 33.203 69.741 C 34.045 68.437 34.302 67.821 35.631 68.585 C 37.026 69.273 38.207 70.329 39.048 71.638 C 39.302 72.006 39.874 71.622 39.697 71.205 C 39.785 71.2 38.67 69.078 35.746 67.653 Z M 32.8 67.063 C 29.849 66.342 27.076 65.027 24.65 63.2 C 24.307 62.96 23.857 63.487 24.178 63.77 C 25.478 64.92 30.506 67.844 32.59 67.752 C 32.926 67.738 33.188 67.175 32.8 67.063 Z M 53.462 106.953 C 53.52 108.3 52.531 108.561 52.495 107.13 C 52.232 101.114 51.205 95.155 49.44 89.398 C 47.737 83.119 44.576 77.33 40.214 72.503 C 39.908 72.155 40.374 71.623 40.713 71.967 C 44.7 75.99 48.459 82.536 50.342 89.127 C 51.968 94.951 53.014 100.922 53.463 106.953 Z M 83.52 60.442 C 83.575 60.242 83.779 60.124 83.98 60.174 C 84.18 60.225 84.304 60.426 84.258 60.627 C 83.834 64.049 82.106 66.426 80.296 69.173 C 78.892 71.37 77.194 73.365 75.248 75.101 C 74.915 75.401 74.464 74.875 74.729 74.541 C 76.602 72.186 77.786 71.269 79.386 68.701 C 81.668 65.048 81.955 64.752 83.52 60.442 Z M 82.429 56.034 C 82.443 55.828 82.298 55.645 82.094 55.612 C 81.89 55.579 81.694 55.707 81.642 55.907 C 80.827 59.127 79.424 62.169 77.505 64.88 C 77.405 65.055 77.447 65.277 77.604 65.403 C 77.762 65.529 77.988 65.522 78.137 65.386 C 79.807 63.613 82.695 58.694 82.432 56.034 Z M 78.711 54.526 C 77.898 57.721 76.661 60.794 75.031 63.661 C 74.825 64.046 75.41 64.363 75.671 64.046 C 77.735 61.295 79.045 58.053 79.47 54.64 C 79.497 54.434 79.354 54.244 79.148 54.213 C 78.943 54.182 78.75 54.321 78.714 54.526 Z M 75.256 54.097 C 74.497 57.618 73.391 61.056 71.957 64.361 C 71.781 64.794 72.45 65.081 72.69 64.698 C 73.957 62.671 76.157 56.809 76.046 54.234 C 76.03 53.785 75.36 53.63 75.259 54.097 Z M 68.834 59.957 C 69.06 59.588 69.739 59.773 69.581 60.218 C 68.008 64.629 68.159 66.138 67.821 70.486 C 67.786 70.93 67.171 70.798 67.106 70.438 C 66.587 67.611 67.333 62.412 68.837 59.957 Z M 74.043 80.842 C 73.695 81.286 73.307 81.09 72.96 80.854 C 72.72 80.635 72.638 80.291 72.754 79.987 C 72.87 79.683 73.16 79.48 73.485 79.476 C 73.811 79.473 74.106 79.668 74.229 79.969 C 74.352 80.271 74.278 80.616 74.043 80.842 Z M 72.385 83.497 C 72.561 83.817 72.109 84.347 71.849 84.087 C 69.656 81.894 64.824 79.156 62.64 77.84 C 62.279 77.622 62.597 77.072 62.971 77.2 C 64.779 77.823 71.476 81.84 72.388 83.497 Z M 56.107 87.795 C 56.29 88.222 55.62 88.675 55.37 88.303 C 53.253 85.292 50.641 82.662 47.646 80.522 C 47.278 80.257 47.733 79.749 48.098 79.991 C 50.152 81.36 55.139 85.526 56.11 87.795 Z M 116.96 59.545 C 117.168 59.455 117.41 59.54 117.515 59.741 C 117.62 59.941 117.552 60.189 117.36 60.308 C 115.069 61.731 112.411 62.453 109.715 62.384 C 109.699 63.439 109.411 64.473 108.879 65.385 C 108.76 65.483 108.594 65.501 108.456 65.432 C 108.317 65.363 108.233 65.219 108.239 65.065 C 108.596 64.181 108.812 63.247 108.879 62.297 C 105.883 61.893 103.356 59.866 102.312 57.029 C 100.899 53.173 102.085 48.901 103.557 45.246 C 103.615 45.054 103.817 44.945 104.009 45.002 C 104.201 45.058 104.311 45.259 104.257 45.451 C 103.548 47.593 103.035 49.795 102.725 52.03 C 102.354 56.67 104.378 60.715 109.285 61.194 C 111.884 61.444 114.545 60.538 116.96 59.545 Z M 107.35 65.28 C 107.699 66.511 108.236 67.68 108.942 68.746 C 113.291 67.509 117.5 65.826 121.502 63.725 C 122.194 63.382 122.311 63.335 122.997 63.709 C 124.177 64.391 125.26 65.23 126.214 66.204 C 126.402 66.37 126.424 66.656 126.263 66.849 C 126.102 67.041 125.817 67.072 125.62 66.917 C 124.627 65.953 123.54 65.091 122.376 64.343 C 118.397 66.634 114.115 68.351 109.656 69.444 C 110.628 70.253 111.553 71.116 112.429 72.029 C 113.977 73.517 113.93 73.77 116.085 72.878 C 118.57 71.909 120.876 70.53 122.905 68.798 C 123.282 68.466 123.731 69.026 123.397 69.388 C 121.682 71.238 118.179 73.191 115.797 74.047 C 114.136 74.643 113.499 74.414 112.284 73.233 C 111.638 72.606 109.164 70.026 108.674 69.691 C 107.318 70.307 106.004 71.011 104.74 71.799 C 104.074 72.151 103.864 71.456 104.44 71.019 C 105.597 70.284 106.809 69.638 108.066 69.089 C 107.485 68.121 107.02 67.088 106.678 66.013 C 105.814 66.787 105.067 67.683 104.458 68.671 C 104.356 68.815 104.165 68.863 104.008 68.785 C 103.85 68.707 103.772 68.526 103.824 68.358 C 104.364 67.202 105.145 66.175 106.116 65.348 C 106.251 65.347 106.953 64.246 107.35 65.28 Z M 124.384 41.295 C 123.751 41.123 123.698 40.655 124.359 40.255 C 125.652 39.475 125.178 37.749 123.964 37.068 C 122.592 36.425 120.984 36.547 119.724 37.388 C 119.122 37.851 118.738 37.411 118.732 36.93 C 118.712 34.514 116.935 32.473 114.546 32.119 C 112.208 31.768 108.659 32.955 107.655 35.246 C 107.522 35.55 107.015 35.748 106.781 35.42 C 105.485 33.592 103.012 33.997 101.347 35.062 C 97.202 37.715 99.667 41.026 103.187 42.516 C 106.57 43.95 110.524 43.902 114.102 43.446 C 115.16 43.311 115.324 43.526 115.548 44.586 C 116.056 46.804 117.544 48.671 119.592 49.663 C 120.862 47.418 124.087 48.051 125.05 50.527 C 125.964 52.878 124.475 55.598 121.786 56.436 C 121.786 59.79 122.266 61.828 122.201 62.148 C 122.129 62.51 121.683 62.486 121.5 62.246 C 120.886 61.441 120.799 57.395 120.932 56.43 C 121.042 55.63 120.996 55.642 121.804 55.35 C 123.585 54.741 124.63 52.896 124.235 51.055 C 123.724 49.195 121.567 48.483 120.264 50.095 C 119.974 50.454 119.788 50.534 118.984 50.234 C 116.541 49.164 114.826 46.906 114.45 44.266 C 100.08 46.646 94.39 38.288 100.781 34.17 C 102.781 32.886 105.45 32.604 107.13 34.269 C 108.174 31.967 112.394 30.806 114.688 31.149 C 117.255 31.534 119.601 33.659 119.782 36.269 C 121.345 35.492 123.191 35.543 124.707 36.406 C 126.185 37.394 126.707 39.522 125.29 40.801 C 128.52 41.696 129.926 45.83 129.494 49.5 C 129.094 53.268 126.759 56.555 123.334 58.174 C 122.774 58.423 122.329 57.592 122.889 57.325 C 125.955 55.914 128.083 53.029 128.525 49.683 C 128.899 46.554 127.774 42.217 124.384 41.295 Z M 113.732 55.331 C 113.874 54.498 114.893 54.886 114.662 55.715 C 114.098 57.75 110.678 57.434 109.398 57.155 C 108.94 57.057 109.038 56.355 109.506 56.43 C 110.537 56.606 113.487 56.754 113.732 55.331 Z M 110.92 47.052 C 111.431 46.746 112.054 46.694 112.608 46.912 C 113.162 47.129 113.584 47.592 113.75 48.163 C 113.893 48.803 113.311 49.098 113.047 48.555 C 112.701 47.859 111.916 47.499 111.162 47.692 C 110.855 47.721 110.531 47.273 110.92 47.052 Z M 107.16 46.866 C 107.467 47.231 107.01 47.594 106.536 47.426 C 105.945 47.192 105.27 47.366 104.866 47.858 C 104.741 47.991 104.538 48.015 104.385 47.914 C 104.232 47.813 104.175 47.616 104.25 47.449 C 104.64 46.573 106.393 45.954 107.163 46.866 Z M 106.128 49.994 C 106.214 50.508 105.918 51.078 105.434 51.078 C 104.819 51.078 104.731 50.589 104.756 50.194 C 104.701 49.814 104.964 49.461 105.344 49.406 C 105.724 49.351 106.076 49.615 106.131 49.994 Z M 111.438 49.506 C 111.797 49.612 111.89 50.17 111.845 50.466 C 111.765 50.979 111.398 51.46 110.858 51.278 C 110.456 51.102 110.261 50.644 110.411 50.232 C 110.57 49.746 111.028 49.383 111.44 49.506 Z M 109.302 53.741 C 109.791 53.952 109.485 54.701 108.991 54.594 C 108.39 54.458 107.859 54.696 107.257 54.616 C 106.117 54.465 105.87 53.624 106.262 52.666 C 106.612 51.74 107.108 50.876 107.73 50.106 C 107.974 49.908 108.306 50.201 108.251 50.469 C 108.171 50.858 107.725 51.419 107.172 52.789 C 106.922 53.411 106.778 53.778 107.631 53.729 C 108.182 53.596 108.757 53.6 109.306 53.741 Z M 100.146 113.314 C 95.87 113.81 96.935 123.191 98.598 126.206 C 96.758 128.657 88.491 128.222 86.462 127.211 C 85.862 113.486 87.562 103.376 90.702 90.134 C 90.765 89.933 90.654 89.719 90.454 89.654 C 90.254 89.588 90.038 89.695 89.97 89.894 C 87.242 97.229 85.804 108.107 85.503 115.894 C 80.901 117.672 76.198 119.176 71.418 120.4 C 70.538 117.111 65.91 109.022 62.921 107.453 C 73.906 101.838 81.502 96.581 86.387 87.226 C 91.454 77.522 97.978 70.126 103.556 67.585 C 102.031 71.945 101.28 90.065 103.882 96.305 C 101.903 101.788 100.648 107.506 100.15 113.314 Z M 95.294 88.34 C 95.873 86.799 96.638 85.334 97.572 83.978 C 96.509 82.566 95.752 80.947 95.349 79.226 C 95.294 78.83 95.88 78.595 96.033 78.992 C 96.482 80.416 97.155 81.761 98.025 82.974 C 98.594 83.735 98.53 83.896 98.117 84.644 C 97.24 86.258 96.465 87.926 95.797 89.637 C 97.727 93.914 98.9 95.355 101.606 98.697 C 101.926 99.097 101.53 99.632 101.172 99.307 C 98.646 96.733 96.623 93.71 95.209 90.392 C 94.743 89.154 94.822 89.52 95.298 88.34 Z M 114.624 112.56 C 115.069 112.696 114.953 113.404 114.478 113.461 C 112.487 113.701 110.75 110.981 108.69 111.03 C 107.09 111.066 105.937 113.022 104.069 113.11 C 103.86 113.122 103.679 112.969 103.657 112.761 C 103.636 112.553 103.782 112.365 103.989 112.335 C 105.699 111.993 106.692 110.224 108.752 109.942 C 110.438 109.714 113.05 112.08 114.624 112.56 Z M 107.584 127.433 C 105.411 127.533 101.484 127.704 100.119 125.706 C 99.862 125.332 99.341 125.762 99.494 126.133 C 100.526 128.642 104.945 128.57 107.19 128.498 C 110.643 128.404 114.05 127.673 117.238 126.342 C 117.87 126.073 117.39 125.151 116.765 125.396 C 113.835 126.571 110.733 127.26 107.582 127.434 Z M 104.675 124.454 C 101.906 125.503 98.502 124.894 98.418 122.6 C 98.402 122.168 99.098 122.048 99.172 122.474 C 99.578 124.807 103.37 123.551 104.425 123.63 C 104.823 123.631 105.129 124.283 104.673 124.456 Z M 104.159 120.454 C 102.492 120.374 99.947 121.212 98.973 118.961 C 98.764 118.481 98.149 118.771 98.23 119.281 C 98.56 121.357 100.943 121.986 104.294 121.361 C 104.762 121.275 104.603 120.454 104.16 120.454 Z M 104.639 117.138 C 104.303 117.014 102.211 117.233 101.374 117.038 C 100.803 116.906 99.646 116.347 100.002 115.527 C 100.1 115.325 100.019 115.082 99.819 114.979 C 99.619 114.877 99.374 114.953 99.267 115.15 C 98.493 116.312 99.638 117.504 100.702 117.846 C 102.008 118.137 103.363 118.145 104.673 117.869 C 104.806 117.792 104.886 117.647 104.879 117.493 C 104.872 117.339 104.78 117.202 104.64 117.138 Z M 127.396 67.584 C 147.55 70.8 158.292 102.002 155.589 112.646 C 153.372 121.381 131.057 129.862 119.79 128.821 C 118.302 128.251 115.93 116.43 116.075 111.354 C 123.28 109.825 132.044 107.258 137.142 101.658 C 137.462 101.302 137.009 100.758 136.632 101.09 C 135.501 102.084 134.302 102.998 133.045 103.826 C 132.321 100.99 129.53 96.074 127.765 93.973 C 127.654 93.802 127.426 93.752 127.255 93.863 C 127.084 93.973 127.034 94.202 127.145 94.373 C 129.465 98.255 130.876 100.322 132.116 104.418 C 126.362 107.945 120.774 109.213 114.923 110.658 C 112.531 109.976 110.573 108.165 109.543 108.044 C 105.774 107.602 104.319 111.11 101.962 111.37 C 103.405 95.352 111.794 77.675 127.395 67.583 Z M 128.262 77.354 C 125.228 78.707 122.325 80.337 119.589 82.222 C 120.236 84.129 121.546 86.582 122.164 88.198 C 122.447 88.937 122.273 89.25 121.684 89.718 C 115.846 94.334 110.513 99.555 105.774 105.294 C 105.462 105.668 104.98 105.15 105.25 104.759 C 109.185 99.046 116.258 92.634 121.335 88.772 C 120.398 86.952 119.608 85.06 118.973 83.114 C 118.554 81.802 118.568 82.011 119.618 81.182 C 122.409 79.115 125.461 77.425 128.695 76.158 C 128.847 74.595 128.761 73.019 128.438 71.483 C 128.358 71.134 128.973 70.906 129.149 71.259 C 129.744 72.709 129.901 74.302 129.6 75.84 C 129.39 76.96 129.339 76.908 128.262 77.353 Z" fill="rgb(2, 28, 95)"></path></svg>