<svg
  width="24"
  height="24"
  viewBox="0 0 24 24"
  fill="none"
  xmlns="http://www.w3.org/2000/svg"
>
  <path
    d="M0 9.55267C0 8.50601 0.228987 7.5671 0.68696 6.73593C1.1522 5.89707 1.78101 5.23136 2.57338 4.73882C3.36574 4.24627 4.26352 4 5.2667 4C6.28442 4 7.21854 4.26936 8.06906 4.80808C8.92685 5.3468 9.61381 6.12795 10.1299 7.15152C10.6461 8.16739 10.9041 9.3949 10.9041 10.8341C10.9041 12.1116 10.6897 13.2852 10.2608 14.355C9.83916 15.4247 9.26488 16.3636 8.53794 17.1717C8.01454 17.7566 7.41845 18.2722 6.74966 18.7186C6.08814 19.1573 5.38301 19.5075 4.63426 19.7691C4.39437 19.8461 4.19809 19.9038 4.04543 19.9423C3.89278 19.9808 3.72558 20 3.54384 20C3.28941 20 3.08587 19.923 2.93321 19.7691C2.78055 19.6152 2.70423 19.419 2.70423 19.1804C2.70423 19.0495 2.72603 18.9341 2.76965 18.8341C2.81327 18.734 2.87869 18.6494 2.96592 18.5801C3.03862 18.5108 3.13676 18.4493 3.26034 18.3954C3.39119 18.3415 3.54384 18.2838 3.71831 18.2222C4.3144 18.0375 4.87415 17.7874 5.39755 17.4719C5.92821 17.1563 6.408 16.7946 6.83689 16.3867C7.26579 15.9711 7.63289 15.5171 7.93821 15.0245C8.2508 14.532 8.48705 14.0125 8.64698 13.4661H8.35257C7.90186 13.9971 7.37846 14.3973 6.78237 14.6667C6.18628 14.936 5.56474 15.0707 4.91776 15.0707C3.99455 15.0707 3.1622 14.8244 2.42072 14.3319C1.67924 13.8393 1.09041 13.1775 0.654248 12.3463C0.218083 11.5075 0 10.5762 0 9.55267ZM13.0959 9.55267C13.0959 8.50601 13.3249 7.5671 13.7828 6.73593C14.2481 5.89707 14.8769 5.23136 15.6692 4.73882C16.4616 4.24627 17.3594 4 18.3626 4C19.3803 4 20.3144 4.26936 21.1649 4.80808C22.0227 5.3468 22.7097 6.12795 23.2258 7.15152C23.7419 8.16739 24 9.3949 24 10.8341C24 12.1116 23.7856 13.2852 23.3567 14.355C22.935 15.4247 22.3535 16.3636 21.612 17.1717C21.0959 17.7566 20.5034 18.2722 19.8346 18.7186C19.1731 19.1573 18.468 19.5075 17.7192 19.7691C17.4866 19.8461 17.2903 19.9038 17.1304 19.9423C16.9777 19.9808 16.8178 20 16.6506 20C16.3962 20 16.189 19.923 16.0291 19.7691C15.8692 19.6152 15.7892 19.419 15.7892 19.1804C15.7892 19.0495 15.811 18.9341 15.8546 18.8341C15.9055 18.734 15.9746 18.6494 16.0618 18.5801C16.1345 18.5108 16.2326 18.4493 16.3562 18.3954C16.4798 18.3415 16.6288 18.2838 16.8033 18.2222C17.3994 18.0375 17.9627 17.7874 18.4934 17.4719C19.0241 17.1563 19.5039 16.7946 19.9328 16.3867C20.3617 15.9711 20.7288 15.5171 21.0341 15.0245C21.3467 14.532 21.5793 14.0125 21.7319 13.4661H21.4484C20.9905 13.9971 20.4634 14.3973 19.8673 14.6667C19.2785 14.936 18.6606 15.0707 18.0136 15.0707C17.0904 15.0707 16.2581 14.8244 15.5166 14.3319C14.7751 13.8393 14.1863 13.1775 13.7501 12.3463C13.3139 11.5075 13.0959 10.5762 13.0959 9.55267Z"
    fill="currentColor"
  />
</svg>
