<svg xmlns="http://www.w3.org/2000/svg" width="160" height="160"><path d="M 101.52 102.734 C 101.52 102.734 100.138 96.212 107.84 95.825 C 105.832 93.861 103.614 92.125 101.226 90.647 C 101.469 88.993 101.604 87.326 101.631 85.654 C 101.786 83.707 101.56 81.749 100.968 79.887 C 100.713 79.15 99.424 79.205 99.512 80.09 C 100.152 86.554 99.336 87.077 99.218 90.076 C 98.299 90.306 95.36 92.908 94.648 93.54 C 93.745 95.99 91.296 102.953 92.4 103.6 C 93.749 104.39 98.814 103.914 101.52 102.734 Z M 120.832 91.514 C 122.013 88.285 122.865 84.945 123.374 81.546 C 123.519 80.532 122.051 80.072 121.808 81.122 C 121.07 84.408 120.129 87.644 118.99 90.814 C 117.705 91.145 116.489 91.7 115.397 92.453 C 114.494 95.125 113.534 98.072 113.388 98.754 C 112.926 100.451 112.335 102.109 111.619 103.714 C 111.619 103.714 114.287 103.659 113.812 109.094 C 113.534 112.282 111.362 118.011 107.916 118.436 C 104.931 118.804 102.499 115.967 102.499 115.967 C 100.031 117.284 97.454 118.387 94.798 119.265 L 95.314 122.065 C 101.559 121.641 121.606 120.665 121.606 120.665 L 125.494 102.314 C 125.475 102.292 123.135 94.038 120.832 91.514 Z M 73.572 38.671 C 73.002 38.802 72.428 38.92 71.841 39.058 C 71.766 39.075 71.506 35.574 71.933 35.115 C 72.226 34.8 73.018 34.795 73.406 34.71 C 74.031 34.586 74.642 34.4 75.23 34.157 C 77.037 33.366 76.609 30.827 75.23 29.917 C 71.93 27.743 64.382 29.113 65.723 39.442 C 65.757 39.701 65.797 39.94 65.815 40.198 C 64.427 40.272 63.078 40.69 61.891 41.414 C 60.451 42.482 60.211 44.585 61.891 45.615 C 63.364 46.519 65.171 46.462 66.884 46.242 C 67.678 51.002 67.934 52.783 68.432 55.343 C 68.802 56.706 70.041 57.651 71.454 57.646 C 71.73 57.612 72.024 57.59 72.282 57.536 C 74.03 57.174 74.787 55.251 74.475 53.666 C 73.92 50.848 73.498 48.01 73.002 45.191 C 73.722 45.044 74.458 44.882 75.175 44.73 C 79.16 43.89 77.498 37.776 73.572 38.671 Z M 98.925 62.807 C 100.765 64.226 103.182 64.704 105.374 65.295 C 107.622 65.902 109.925 66.495 112.227 66.934 C 113.388 67.23 114.567 67.509 115.747 67.764 C 116.778 67.987 118.034 68.41 118.75 67.358 C 119.27 66.354 119.642 65.281 119.856 64.171 C 120.576 61.744 122.169 55.941 122.675 53.779 C 123.075 52.066 123.955 49.524 123.689 48.491 C 123.449 47.582 122.818 47.451 116.724 45.875 C 113.021 44.915 109.284 43.858 105.503 43.204 C 104.778 42.985 103.994 43.086 103.347 43.48 C 101.95 44.514 101.538 46.74 101.045 48.289 C 99.88 51.779 99.004 55.359 98.428 58.994 C 98.23 60.413 97.725 62.007 98.925 62.807 Z M 101.136 58.183 C 101.861 54.465 102.846 50.803 104.084 47.223 C 104.272 46.709 104.618 46.174 104.784 45.658 C 104.864 45.698 104.243 45.509 107.879 46.339 C 109.404 46.687 118.999 49.103 120.795 49.674 C 120.875 49.716 120.955 49.737 120.906 49.877 C 120.557 51.692 120.115 53.488 119.579 55.257 C 119.513 55.511 117.246 64.27 116.742 65.28 C 116.387 65.28 109.658 63.625 104.618 62.092 C 104.01 61.907 100.658 61.208 100.749 60.492 C 100.923 59.731 101.053 58.96 101.136 58.183 Z" fill="rgb(255,90,38)"></path><path d="M 109.538 60.062 C 110.96 60.302 112.415 59.89 113.5 58.94 C 114.586 57.99 115.187 56.603 115.138 55.162 C 114.999 52.486 112.584 50.095 110.071 50.26 C 107.538 50.576 105.601 52.67 105.483 55.22 C 105.433 57.621 107.165 59.69 109.538 60.062 Z M 108.119 54.148 C 108.478 53.442 109.156 52.954 109.938 52.837 C 110.721 52.72 111.512 52.989 112.062 53.558 C 113.444 55.032 112.449 57.758 110.366 57.778 C 109.484 57.81 108.652 57.367 108.188 56.616 C 107.723 55.866 107.697 54.923 108.119 54.148 Z M 116.446 54.038 C 117.048 54.038 117.574 53.634 117.73 53.053 C 117.885 52.473 117.631 51.86 117.11 51.559 C 116.59 51.259 115.932 51.346 115.507 51.771 C 115.125 52.15 115.01 52.722 115.216 53.219 C 115.422 53.717 115.908 54.04 116.446 54.038 Z M 31.066 67.34 C 30.499 67.394 29.932 67.229 29.482 66.879 C 29.021 66.623 28.557 66.37 28.122 66.087 C 27.413 65.63 27.042 67.484 27.108 68.262 C 27.22 69.551 28.158 71.323 29.522 71.614 C 30.635 71.745 31.76 71.74 32.872 71.6 C 33.222 71.585 33.315 72.16 32.964 72.226 C 32.101 72.402 31.227 72.513 30.348 72.558 C 30.866 74.428 32.458 75.802 34.383 76.041 C 32.373 77.58 29.837 78.262 27.326 77.938 C 31.232 79.762 35.966 81.838 43.356 77.736 C 49.341 74.414 49.878 67.842 49.878 65.594 C 50.922 64.802 51.805 63.819 52.48 62.697 C 52.72 62.33 52.259 61.977 51.927 62.144 C 51.516 62.324 51.091 62.472 50.656 62.586 C 51.172 61.898 51.565 61.125 51.817 60.302 C 52.019 60.044 51.744 59.604 51.411 59.822 C 50.367 60.457 49.27 61 48.131 61.443 C 47.847 61.131 47.545 60.836 47.225 60.56 C 44.954 59.046 40.419 59.721 38.878 62.992 C 38.784 63.194 38.105 65.203 38.455 65.277 C 36.64 64.831 34.934 64.023 33.44 62.9 C 32.335 62.106 30.696 59.376 29.184 59.51 C 27.95 59.618 26.499 64.06 28.318 65.258 C 29.094 65.77 30.158 66.698 31.082 66.879 C 31.325 66.861 31.326 67.289 31.066 67.34 Z" fill="rgb(255,90,38)"></path><path d="M 33.775 95.346 C 33.809 95.462 33.908 95.547 34.028 95.563 C 34.147 95.578 34.265 95.522 34.328 95.419 C 34.76 94.45 34.896 90.262 34.328 88.713 C 34.281 88.573 34.133 88.495 33.991 88.534 C 33.849 88.573 33.763 88.716 33.794 88.86 C 34.364 92.343 33.468 93.958 33.775 95.346 Z M 68.634 82.964 C 69.189 81.664 69.666 80.33 70.164 79.003 L 70.96 84 C 69.044 84.277 67.237 86.266 66.704 87.962 C 66.113 89.84 66.649 92.682 68.491 93.728 C 67.634 94.877 66.572 95.857 65.359 96.621 L 65.304 96.621 C 65.161 96.662 65.05 96.773 65.009 96.916 C 65.009 96.934 64.99 96.971 64.99 96.99 C 64.898 97.339 65.302 97.724 65.635 97.487 C 67.073 96.612 68.28 95.405 69.155 93.967 C 69.31 93.906 69.419 93.764 69.438 93.598 C 69.458 93.433 69.384 93.27 69.247 93.174 C 67.626 92.087 66.92 90.059 67.515 88.2 C 68.079 86.55 69.391 85.265 71.053 84.736 C 71.998 90.63 71.898 90.313 72.103 90.558 C 71.846 90.577 71.587 90.579 71.311 90.595 C 71.145 90.601 71.002 90.716 70.96 90.877 C 70.917 91.038 70.985 91.208 71.126 91.295 C 72.922 92.255 75.391 90.507 76.175 88.918 C 77.199 86.842 76.872 83.558 75.143 81.954 C 75.031 81.842 74.85 81.842 74.738 81.954 C 74.626 82.066 74.626 82.247 74.738 82.359 C 76.038 83.841 76.209 86.725 75.402 88.477 C 75.175 88.938 74.855 89.347 74.462 89.677 L 71.145 68.637 C 71.919 69.17 72.693 69.686 73.465 70.185 C 76.174 73.98 78.741 77.882 81.572 81.571 C 81.665 81.721 81.838 81.802 82.013 81.779 C 82.188 81.755 82.333 81.63 82.382 81.461 C 83.679 78.036 84.931 74.604 86.382 71.254 C 86.542 70.882 85.917 70.624 85.719 70.977 C 84.058 73.937 82.992 77.242 81.813 80.429 C 79.215 76.946 76.82 73.317 74.093 69.945 C 76.014 68.594 77.803 67.064 79.436 65.376 C 80.505 66.053 81.631 66.636 82.8 67.12 C 82.939 67.17 83.095 67.126 83.187 67.01 C 87.202 66.257 87.696 65.848 91.699 66.77 C 91.898 66.825 92.105 66.71 92.16 66.511 C 92.216 66.312 92.1 66.105 91.902 66.05 C 88.965 64.93 86.006 65.57 83.076 66.362 C 81.976 65.609 80.818 64.944 79.613 64.373 C 79.422 64.263 79.181 64.293 79.023 64.446 C 77.382 66.278 75.595 67.972 73.68 69.514 C 72.777 68.794 71.856 68.095 70.934 67.414 C 69.902 60.894 70.012 61.422 69.884 61.168 C 78.174 60.688 86.867 53.918 88.254 45.802 C 88.849 41.891 88.299 37.891 86.67 34.286 C 83.47 27.27 75.916 24.497 68.613 25.461 C 68.171 25.519 68.262 26.302 68.723 26.253 C 74.63 25.622 80.97 27.343 84.477 32.462 C 88.506 38.344 88.512 46.834 84.071 52.453 C 80.11 57.465 73.09 61.13 66.605 60.062 C 58.977 58.807 53.392 52.03 52.765 44.457 C 52.062 35.926 57.57 27.177 66.605 26.697 C 66.991 26.676 67.01 26.07 66.605 26.089 C 58.627 26.445 52.918 33.017 51.975 40.699 C 50.736 50.83 57.806 60.269 67.382 61.15 C 67.249 61.503 67.298 61.448 67.898 65.24 C 67.75 65.129 67.584 65.018 67.437 64.908 C 67.411 64.8 67.335 64.712 67.232 64.672 C 67.129 64.632 67.013 64.644 66.921 64.706 C 65.765 65.602 64.651 66.671 63.42 67.45 C 62.09 68.293 60.656 67.78 59.219 68.077 C 58.777 68.169 58.888 68.872 59.33 68.87 C 60.77 68.86 62.26 69.274 63.55 68.501 C 64.769 67.681 65.899 66.736 66.921 65.68 C 67.305 65.991 67.705 66.28 68.121 66.546 L 69.832 77.29 C 69.261 78.818 68.708 80.366 68.1 81.896 C 66.092 78.395 64.221 74.826 62.334 71.265 C 62.148 70.915 61.673 71.226 61.818 71.559 C 63.576 75.522 65.563 79.379 67.769 83.112 C 67.886 83.248 68.066 83.313 68.243 83.282 C 68.42 83.252 68.569 83.131 68.634 82.964 Z M 104.268 99.473 C 106.034 97.879 107.302 98.218 108.487 98.113 C 108.911 98.074 109.039 97.451 108.598 97.338 C 106.764 97.019 104.892 97.634 103.605 98.978 C 102.511 100.127 102.22 101.823 102.868 103.271 C 100.04 104.871 94.322 104.927 91.076 104.631 C 90.578 100.78 91.886 97.073 93.342 93.591 C 93.466 93.294 92.942 93.058 92.808 93.37 C 91.32 96.918 89.823 100.65 90.321 104.554 C 89.369 104.445 88.423 104.297 87.483 104.112 C 87.114 104.039 86.949 104.592 87.336 104.683 C 90.469 105.445 93.699 105.73 96.917 105.53 C 99.091 105.389 101.541 105.107 103.458 103.983 C 104.24 103.6 102.364 101.191 104.268 99.473 Z M 126.175 82.411 C 125.944 82.352 125.707 82.488 125.642 82.718 C 125.577 82.948 125.707 83.188 125.935 83.259 C 134.21 85.761 144.93 93.644 149.833 100.707 C 152.647 104.762 153.323 107.859 152.153 112.867 C 150.873 118.359 146.346 122.59 141.946 125.819 C 139.013 127.881 135.747 129.42 132.291 130.37 C 128.531 131.472 124.478 132.27 120.776 130.628 C 120.444 130.481 120.13 130.962 120.481 131.144 C 123.624 132.78 126.986 132.436 130.357 131.697 C 133.732 130.955 136.979 129.72 139.993 128.03 C 142.863 126.329 145.48 124.233 147.768 121.803 C 152.041 117.436 153.368 113.71 153.443 108.169 C 153.578 98.352 135.68 84.918 126.175 82.411 Z" fill="rgb(2, 28, 95)"></path><path d="M 118.823 126.152 C 121.563 126.815 126.357 127.777 129.05 126.889 C 129.437 126.761 129.399 126.115 128.938 126.134 C 126.625 126.226 126.608 126.87 118.971 125.599 C 118.622 125.541 118.454 126.062 118.823 126.152 Z M 119.542 128.768 C 121.2 129.352 122.943 129.658 124.701 129.671 C 125.8 129.751 128.753 129.904 129.694 129.321 C 129.99 129.138 129.915 128.529 129.491 128.584 C 127.914 128.937 126.29 129.03 124.682 128.86 C 122.987 128.754 121.348 128.38 119.671 128.27 C 119.432 128.234 119.302 128.66 119.542 128.768 Z M 126.857 124.567 C 127.373 124.553 128.28 124.647 128.681 124.254 C 128.755 124.176 128.79 124.068 128.776 123.96 C 128.762 123.853 128.7 123.758 128.607 123.702 C 128.028 123.589 127.431 123.602 126.857 123.738 C 123.998 123.898 121.824 123.591 119.763 123.702 C 119.45 123.718 119.34 124.215 119.69 124.273 C 122.069 124.538 124.464 124.636 126.857 124.567 Z M 136.254 114.415 C 134.58 116.758 132.476 119.482 129.602 120.33 C 128.294 119.114 126.046 118.89 124.388 119.279 C 124.001 119.37 124.166 119.94 124.554 119.869 C 126.938 119.434 128.255 120.434 129.252 120.919 C 129.369 120.99 129.478 120.938 129.584 120.938 C 132.734 120.218 135.036 117.381 136.843 114.894 C 138.813 112.185 141.522 108.778 140.843 105.203 C 140.77 104.816 140.184 104.926 140.18 105.295 C 140.174 106.221 140.057 107.142 139.83 108.04 C 138.688 106.253 136.533 105.092 134.763 104.04 C 132.175 102.353 129.32 101.114 126.32 100.376 C 125.97 100.304 125.823 100.833 126.173 100.91 C 129.146 101.565 131.757 103.082 134.333 104.65 C 137.663 106.677 136.71 106.062 139.453 108.833 C 139.479 108.863 139.51 108.888 139.545 108.906 C 138.697 110.881 137.59 112.733 136.254 114.415 Z M 108.542 80.735 C 108.766 80.79 108.993 80.66 109.058 80.44 C 109.462 78.559 109.721 76.65 109.832 74.729 C 109.832 74.434 109.352 74.342 109.298 74.654 C 108.996 76.404 108.801 78.174 108.338 79.869 C 106.84 79.686 103.826 79.494 102.405 79.998 C 102.249 80.045 102.152 80.199 102.175 80.359 C 102.198 80.52 102.334 80.64 102.497 80.642 C 103.739 80.831 105.68 80.267 108.542 80.735 Z M 78.731 85.322 C 78.613 87.735 78.548 89.782 76.999 92.03 C 76.533 92.706 75.79 93.164 75.359 93.854 C 75.285 93.984 75.298 94.146 75.391 94.264 C 75.484 94.381 75.639 94.43 75.783 94.388 C 77.698 93.754 80.271 88.5 79.266 85.268 C 79.228 85.143 79.106 85.062 78.976 85.075 C 78.846 85.088 78.743 85.192 78.731 85.322 Z M 77.92 59.418 C 77.826 60.338 77.81 61.242 77.791 62.162 C 77.715 62.997 77.733 63.838 77.846 64.669 C 77.89 64.816 78.025 64.917 78.178 64.917 C 78.331 64.917 78.466 64.816 78.51 64.669 C 78.628 63.839 78.646 62.997 78.565 62.162 C 78.545 61.242 78.528 60.338 78.436 59.418 C 78.441 59.322 78.393 59.231 78.311 59.182 C 78.229 59.132 78.127 59.132 78.045 59.182 C 77.963 59.231 77.915 59.322 77.92 59.418 Z M 105.834 116.534 C 107.882 117.131 110.403 116.037 110.146 113.642 C 111.108 113.149 111.593 112.049 111.306 111.006 C 111.291 110.962 111.273 110.919 111.251 110.878 C 112.394 110.141 113.02 108.98 112.062 107.727 C 112.743 106.677 113.015 105.195 111.656 104.614 C 111.361 104.486 111.048 104.742 111.214 105.055 C 111.527 105.646 111.977 105.998 111.749 106.735 C 111.531 107.309 111.146 107.803 110.643 108.154 C 109.411 108.939 107.833 108.932 106.608 108.136 C 106.487 108.074 106.339 108.117 106.27 108.235 C 106.202 108.352 106.237 108.503 106.35 108.578 C 107.844 109.692 109.895 109.685 111.38 108.559 C 111.469 108.488 111.549 108.408 111.62 108.319 C 112.468 109.59 110.74 110.512 109.7 110.843 C 108.336 111.251 106.862 111.043 105.665 110.272 C 105.389 110.106 105.167 110.512 105.407 110.696 C 106.907 111.856 108.936 112.063 110.64 111.23 C 111.082 112.83 109.387 113.47 108.115 113.55 C 107.006 113.689 105.905 113.243 105.205 112.371 C 104.965 112.093 104.583 112.477 104.818 112.758 C 105.807 113.958 107.399 114.481 108.908 114.103 C 109.089 114.073 109.268 114.029 109.442 113.974 C 109.338 117.293 102.714 116.222 103.51 112.168 C 103.549 112.008 103.454 111.845 103.295 111.801 C 103.136 111.756 102.97 111.845 102.92 112.002 C 102.696 112.698 102.81 112.924 102.717 112.924 C 98.479 115.561 93.577 116.935 88.586 116.885 C 85.398 116.828 80.937 116.13 79.097 113.125 C 78.206 111.454 77.643 109.627 77.438 107.745 C 76.43 101.232 78.136 93.542 82.598 88.288 C 86.453 83.694 91.986 80.835 97.963 80.347 C 98.121 80.347 98.249 80.219 98.249 80.062 C 98.249 79.904 98.121 79.776 97.963 79.776 C 92.598 79.666 87.076 82.725 83.334 86.354 C 76.398 93.081 74.607 104.878 77.862 112.627 C 79.286 116.016 83.168 117.234 86.522 117.621 C 92.223 118.17 97.949 116.844 102.828 113.843 C 103.314 115.189 104.443 116.2 105.834 116.534 Z M 53.969 129.524 C 53.182 131.26 51.519 132.437 49.62 132.601 C 47.614 132.761 47.046 132.066 46.709 132.453 C 41.972 137.911 36.057 143.004 29.279 145.774 C 26.625 146.859 23.603 147.603 20.767 146.843 C 17.967 146.092 15.434 143.754 13.727 141.483 C 11.617 138.671 10.701 135.272 9.802 131.939 C 9.761 131.824 9.638 131.761 9.521 131.795 C 9.404 131.83 9.334 131.949 9.361 132.068 C 10.61 137.051 11.965 141.166 15.643 144.486 C 16.766 145.586 18.06 146.494 19.476 147.176 C 28.049 150.835 40.84 140.318 47.168 133.229 C 50.142 134.084 53.283 132.558 54.448 129.691 C 54.457 129.572 54.385 129.462 54.273 129.423 C 54.16 129.384 54.035 129.425 53.969 129.524 Z" fill="rgb(2, 28, 95)"></path><path d="M 121.108 133.024 C 115.508 131.067 118.105 124.07 118.105 124.07 L 95.166 124.494 C 88.441 131.09 91.831 156 91.831 156 L 126.08 156 L 126.08 133.725 C 126.065 133.725 124.37 134.164 121.108 133.024 Z M 41.402 49.52 C 32.762 48.262 24.17 53.44 20.657 61.367 C 16.892 69.858 20.671 79.999 27.879 85.43 C 33.633 89.653 41.337 90.087 47.529 86.535 L 47.529 113.175 C 45.851 114.041 44.715 115.685 44.498 117.56 C 44.327 118.776 44.81 120.065 44.038 121.116 C 43.281 122.147 42.38 123.125 41.532 124.082 C 38.936 127.014 35.452 129.725 31.564 130.66 C 29.795 131.086 27.99 130.9 27.529 128.854 C 27.458 128.541 26.995 128.67 27.049 128.984 C 27.911 133.925 35.582 130.406 39.541 126.957 C 40.625 126.013 41.621 124.982 42.618 123.954 C 43.552 123.108 44.353 122.126 44.994 121.042 C 45.938 119.06 43.906 116.769 47.583 114.06 L 47.583 117.1 C 47.587 117.604 47.839 118.075 48.257 118.358 C 48.674 118.641 49.204 118.701 49.674 118.518 C 49.994 118.395 50.206 118.088 50.209 117.745 L 50.504 84.433 C 56.626 80.171 59.613 72.666 58.094 65.363 C 56.385 57.115 49.729 50.797 41.402 49.52 Z M 49.307 84.546 C 45.884 86.711 41.087 88.306 36.575 87.826 C 25.935 86.687 18.381 74.726 20.509 65.07 C 22.297 56.967 30 50.494 38.307 50.32 C 46.395 50.267 53.66 55.258 56.511 62.826 C 59.512 70.86 56.514 79.9 49.307 84.549 Z" fill="rgb(2, 28, 95)"></path><path d="M 25.613 118.726 C 25.58 118.376 26.089 118.359 26.184 118.653 C 26.649 120.146 27.024 121.666 27.308 123.204 C 27.8 125.729 27.696 129.477 31.398 129.008 C 34.254 128.646 38.317 126.017 42.269 120.662 C 43.684 118.742 39.855 116.59 47.557 112.002 L 47.557 97.225 C 44.35 99.178 38.409 101.078 30.385 96.378 C 29.505 95.86 18.48 98.567 14.134 102.421 C 6.901 108.835 5.192 120.038 7.52 129.266 C 8.05 131.367 23.494 128.16 27.2 127.368 C 26.456 124.531 25.926 121.642 25.613 118.726 Z" fill="rgb(255,90,38)"></path><path d="M 68.8 103.416 C 66.258 100.154 62.075 97.982 58.32 96.875 C 55.446 96.029 53.92 95.217 50.434 94.866 L 50.286 110.933 C 53.179 111.578 54.16 114.613 55.04 117.733 C 56.67 123.498 56.382 129.043 54.58 132.122 C 53.103 134.645 47.45 135.586 47.45 135.586 C 45.349 138.608 40.079 143.047 36.597 145.075 C 26.886 150.73 22.281 149.607 22.281 149.607 L 22.281 153.422 C 23.7 154.73 60.936 154.25 60.936 153.422 C 60.936 152.629 61.451 120.293 61.342 118.138 C 61.326 117.825 61.839 117.751 61.894 118.064 C 62.241 120.155 62.451 122.266 62.521 124.384 C 62.484 123.647 71.973 123.242 73.299 123.389 C 74.438 107.966 68.8 103.416 68.8 103.416 Z" fill="rgb(255,90,38)"></path><path d="M 97.322 67.138 C 99.328 68.924 101.848 68.963 109.814 70.97 C 112.087 71.595 114.412 72.02 116.76 72.24 C 116.886 72.261 117.013 72.211 117.092 72.111 C 117.617 72.134 118.143 72.091 118.658 71.982 L 107.566 104.281 C 107.363 104.896 107.697 105.56 108.312 105.764 C 108.928 105.967 109.592 105.633 109.795 105.018 L 121.33 70.526 C 121.505 70.351 121.671 70.167 121.827 69.974 C 122.803 70.508 126.357 72.146 129.123 69.163 C 132.989 64.996 128.57 61.963 128.57 61.963 C 131.262 61.527 133.304 59.302 133.508 56.583 C 133.878 52.733 130.026 51.517 130.026 51.517 C 130.026 51.517 134.266 49.361 131.979 45.437 C 129.749 41.605 126.525 43.466 126.525 43.466 C 126.525 43.466 127.52 37.828 122.914 37.828 C 118.514 37.828 118.05 40.444 118.05 40.444 C 118.05 40.444 115.323 39.084 114.236 40.924 C 109.098 39.142 102.918 37.142 99.81 41.569 C 98.717 43.338 97.92 45.273 97.451 47.298 C 96.793 49.548 96.179 51.794 95.571 54.061 C 94.742 57.156 94.036 60.141 95 63.31 C 95.409 64.774 96.212 66.098 97.322 67.138 Z M 95.701 57.243 C 96.07 55.593 98.206 47.732 98.962 45.543 C 100.162 42.062 101.615 39.777 105.392 39.777 C 108.248 39.777 111.066 40.865 113.757 41.711 C 115.691 42.32 117.589 43.019 119.524 43.609 C 121.08 43.95 122.613 44.393 124.111 44.935 C 127.354 46.411 126.786 50.261 126.212 53.134 C 125.298 57.709 124.171 66.204 121.034 69.754 C 120.015 70.858 118.576 71.48 117.074 71.467 C 116.997 71.396 116.9 71.351 116.797 71.338 C 112.797 71.025 108.927 69.746 105.023 68.888 C 101.963 68.214 98.463 67.848 96.695 64.908 C 95.416 62.568 95.061 59.833 95.701 57.243 Z M 124.425 23.563 C 124.472 23.698 124.616 23.773 124.753 23.734 C 124.89 23.694 124.973 23.554 124.941 23.415 C 124.522 21.831 125.011 20.145 126.212 19.03 C 126.538 18.645 126.939 18.332 127.391 18.109 C 127.943 17.96 127.854 18.293 127.907 18.643 C 129.002 25.93 128.264 32.111 127.649 39.832 C 127.615 40.256 128.25 40.237 128.294 39.832 C 128.99 33.33 129.606 26.248 128.718 19.712 C 128.697 19.093 128.592 18.479 128.405 17.888 C 127.943 16.894 126.989 17.56 126.396 18.035 C 124.666 19.298 123.884 21.491 124.425 23.563 Z M 121.55 23.25 C 121.63 23.599 122.154 23.453 122.085 23.102 C 121.807 21.701 122.05 20.247 122.766 19.012 C 123.45 17.932 124.455 17.094 125.641 16.617 C 126.008 16.448 125.751 15.842 125.364 15.972 C 122.377 16.977 120.896 20.277 121.55 23.25 Z M 117.958 16.986 C 117.996 17.28 118.511 17.206 118.474 16.911 C 118.046 13.551 116.727 10.798 116.154 8.123 C 116.094 7.844 115.674 5.815 115.933 5.691 C 116.395 5.47 118.778 9.626 119.028 10.076 C 119.889 11.411 120.537 12.872 120.948 14.406 C 120.957 14.466 120.983 14.524 121.022 14.571 C 121.003 14.922 120.985 15.272 120.948 15.603 C 120.93 16.027 121.588 16.027 121.611 15.603 C 121.706 13.797 122.091 6.465 122.109 6.003 C 122.126 5.616 122.037 4.617 122.662 4.861 C 123.216 5.078 123.41 6.115 123.509 6.611 C 124.1 9.571 123.894 10.531 123.914 14.552 C 123.914 14.679 124.018 14.782 124.145 14.782 C 124.272 14.782 124.375 14.679 124.375 14.552 C 124.412 12.267 124.685 9.912 124.357 7.643 C 124.189 6.482 123.966 4.382 122.533 4.032 C 121.959 3.892 121.592 4.253 121.482 4.806 C 121.18 6.326 121.542 5.865 121.114 12.806 C 120.164 10.621 118.99 8.54 117.613 6.596 C 117.243 6.062 116.786 5.19 116.121 4.956 C 114.246 4.296 115.621 8.863 115.807 9.507 C 116.53 12.014 117.621 14.404 117.958 16.986 Z M 119.321 27.84 C 118.469 30.94 117.322 33.951 115.894 36.831 C 115.692 37.237 116.304 37.607 116.521 37.199 C 118.118 34.191 119.302 30.98 120.041 27.655 C 120.05 27.607 120.05 27.557 120.041 27.508 C 120.039 27.342 119.925 27.198 119.764 27.158 C 118.033 26.641 115.736 24.984 115.692 23.013 C 115.628 20.115 117.128 20.23 119.985 19.714 C 120.28 19.662 120.206 19.163 119.911 19.198 C 118.659 19.35 117.206 19.296 116.116 20.01 C 115.124 20.658 114.955 21.797 114.955 22.883 C 114.986 24.068 115.514 25.185 116.41 25.961 C 117.184 26.849 118.193 27.501 119.321 27.84 Z M 85.327 129.376 C 84.853 129.968 84.286 130.478 83.647 130.887 C 82.314 131.481 80.607 131.362 79.207 131.532 C 78.876 131.572 78.838 132.082 79.207 132.085 C 84.413 132.117 84.299 131.382 85.858 129.91 C 86.213 129.58 85.68 129.046 85.327 129.376 Z M 78.197 133.688 C 77.847 133.646 77.754 134.262 78.105 134.314 C 82.029 134.901 83.065 134.474 86.525 132.453 C 86.706 132.336 86.764 132.097 86.656 131.91 C 86.548 131.723 86.312 131.654 86.12 131.753 C 82.855 133.659 81.871 134.129 78.197 133.688 Z M 87.022 134.96 C 85.822 135.292 84.849 136.196 83.595 136.489 C 82.011 136.859 80.297 136.598 78.676 136.655 C 78.524 136.663 78.406 136.789 78.406 136.94 C 78.406 137.092 78.524 137.218 78.676 137.226 C 80.376 137.52 82.113 137.532 83.817 137.263 C 85.11 136.961 86.323 136.382 87.373 135.568 C 87.664 135.323 87.354 134.867 87.022 134.96 Z" fill="rgb(2, 28, 95)"></path><path d="M 86.12 138.257 C 85.218 138.832 84.237 139.272 83.209 139.565 C 82.214 139.711 81.073 139.295 80.076 139.178 C 79.726 139.137 79.69 139.672 80.002 139.768 C 81.79 140.318 82.926 140.723 84.517 140.008 C 84.056 141.574 82.23 142.103 80.832 142.422 C 76.625 143.382 72.056 143.273 70.017 139.455 C 68.505 136.626 68.99 132.34 69.519 129.135 C 71.532 130.201 77.295 130.02 79.839 129.67 C 81.367 129.459 82.917 129.502 83.634 128.619 C 84.453 127.613 83.193 126.898 81.866 126.795 C 79.037 126.71 76.206 126.808 73.39 127.09 C 73.306 126.244 73.306 125.393 73.39 124.547 C 73.426 124.215 72.932 124.234 72.893 124.547 C 72.781 125.415 72.732 126.289 72.746 127.164 C 71.823 127.25 70.91 127.422 70.019 127.679 C 69.474 127.906 69.089 128.404 69.006 128.988 C 68.989 129.057 68.569 131.13 68.618 131.18 C 67.364 129.967 64.77 130.885 64.676 134.46 C 64.638 135.86 64.847 137.475 65.966 138.46 C 66.77 139.211 67.987 139.302 68.895 138.681 C 69.258 139.765 69.87 140.75 70.682 141.555 C 69.532 142.299 68.647 143.389 68.158 144.669 C 68.011 144.964 68.451 145.221 68.6 144.926 C 69.201 143.744 69.908 142.513 71.179 141.998 C 73.925 144.171 78.139 143.946 81.461 143.118 C 83.321 142.655 85.311 141.644 85.477 139.543 C 85.864 139.341 86.23 139.132 86.601 138.954 C 87.04 138.747 86.616 138.016 86.12 138.257 Z M 66.221 137.667 C 65.653 136.903 65.367 135.966 65.41 135.014 C 65.327 134.178 65.46 133.334 65.797 132.564 C 66.281 131.604 68.008 130.777 68.432 132.25 C 68.145 134.112 68.201 136.009 68.598 137.85 C 68.275 138.177 67.825 138.345 67.367 138.309 C 66.909 138.274 66.49 138.039 66.221 137.667 Z" fill="rgb(2, 28, 95)"></path><path d="M 80.61 145.295 C 78.324 149.576 74.715 153.564 69.41 152.815 C 66.916 152.528 64.738 150.995 63.626 148.743 C 62.709 146.498 62.361 144.062 62.612 141.65 C 62.628 141.373 62.206 141.373 62.17 141.65 C 61.912 145.482 62.426 149.98 65.93 152.244 C 69.354 154.458 73.963 153.81 76.984 151.23 C 78.686 149.623 80.063 147.702 81.038 145.574 C 81.2 145.257 80.77 144.997 80.61 145.295 Z M 52.605 116.7 C 52.477 118.106 51.918 119.437 51.005 120.514 C 49.965 121.578 48.628 122.08 47.374 122.817 C 47.062 123.002 47.265 123.537 47.614 123.406 C 50.494 122.322 53.096 120.073 53.05 116.755 C 53.044 116.516 52.654 116.441 52.605 116.7 Z M 48.091 126.852 C 50.376 126.216 52.332 124.733 53.563 122.706 C 53.883 122.046 54.094 121.342 54.41 120.698 C 54.556 120.402 54.117 120.128 53.95 120.44 C 53.471 121.626 52.813 122.732 52 123.72 C 50.854 124.858 49.461 125.716 47.928 126.226 C 47.763 126.277 47.667 126.449 47.711 126.617 C 47.754 126.784 47.922 126.888 48.091 126.852 Z M 54.374 125.397 C 53.211 127.702 52.341 128.693 50.134 129.358 C 49.23 129.63 48.254 129.653 47.37 129.947 C 47.229 129.99 47.14 130.128 47.159 130.273 C 47.177 130.419 47.298 130.53 47.444 130.537 C 49.216 130.492 50.943 129.963 52.437 129.008 C 53.505 128.126 54.32 126.974 54.795 125.673 C 54.942 125.36 54.522 125.102 54.374 125.397 Z" fill="rgb(2, 28, 95)"></path></svg>